<?xml version="1.0" encoding="utf-8"?>
<!-- Generator: Adobe Illustrator 19.0.0, SVG Export Plug-In . SVG Version: 6.00 Build 0)  -->
<svg version="1.1" xmlns="http://www.w3.org/2000/svg" xmlns:xlink="http://www.w3.org/1999/xlink" x="0px" y="0px"
	 viewBox="574 -3 800 800" style="enable-background:new 574 -3 800 800;" xml:space="preserve">
<style type="text/css">
	.st0{display:none;}
	.st1{display:inline;}
	.st2{fill:#52BADC;}
	.st3{fill:url(#SVGID_1_);}
	.st4{font-family:'MyriadPro-Regular';}
	.st5{font-size:61.1298px;}
	.st6{display:none;fill:#5AC5E3;}
	.st7{display:none;fill:#4AB0D5;}
</style>
<g id="Layer_1" class="st0">
	<g class="st1">
		<path class="st2" d="M1127.9,41.6c3.1-10.7,5.8-21.5,9.1-32.1c3.9,0.1,7.8,0.1,11.7,0.1c-3.1,10.7-5.9,21.4-9.1,32.1
			C1135.8,41.6,1131.8,41.6,1127.9,41.6z"/>
		<path class="st2" d="M1238,41.7c-22.2,0-44.2,0-66.6-0.1l9.3-32c22.9-0.1,44.2-0.1,66.3-0.1L1238,41.7z"/>
		<path class="st2" d="M1125.4,54.8c3.8,0,7.5,0,11.3,0c-64.8,242.6-129.6,485.2-194.4,727.8c-3.8,0-7.5,0-11.2,0
			C995.9,540,1060.5,297.4,1125.4,54.8z"/>
		<path class="st2" d="M833.2,149.1c6.3,0,12.7,0,19,0c-44.2,164.7-88.4,329.3-132.5,494c-6.3,0-12.6,0-18.9,0
			C745,478.5,789,313.7,833.2,149.1z"/>
		<path class="st2" d="M891.6,149.1c31.4,0,62.8,0,94.2,0c-19.4,72.2-38.6,144.5-58.1,216.7c15.6,0.2,31.2,0,46.8,0.1
			c-16.4,60.9-32.7,121.9-49,182.9c-15.6,0.1-31.2-0.2-46.8,0.2c-8.2,31.4-16.8,62.7-25.1,94.1c-31.4,0-62.7,0-94.1,0
			C803.6,478.5,847.6,313.8,891.6,149.1z"/>
		<path class="st2" d="M983.9,366c8.2,0,16.3,0,24.5,0c-16.4,61-32.7,121.9-49.1,182.9c-8.2,0-16.3,0-24.5,0
			C951.2,487.9,967.5,426.9,983.9,366z"/>
		<path class="st2" d="M1017.8,366c5,0,10.1,0,15.1,0c-16.4,60.9-32.7,121.9-49.1,182.9c-5,0-10.1,0-15.1,0
			C985.2,487.9,1001.5,426.9,1017.8,366z"/>
		<path class="st2" d="M1168.5,54.8c22.1,0,44.1,0,66.2,0C1169.4,298,1104,541.3,1038.7,784.5c-22,0-44.1,0-66.1,0
			C1038,541.3,1103.2,298,1168.5,54.8z"/>
	</g>
</g>
<g id="Layer_3">
	/* Color for logo is changed here */
	<linearGradient id="SVGID_1_" gradientUnits="userSpaceOnUse" x1="973.3031" y1="782.6143" x2="973.3031" y2="9.5928">
		<stop  offset="0" style="stop-color:#FFFFFF"/>
		<stop  offset="1" style="stop-color:#FFFFFF"/>
	</linearGradient>
	<path class="st3" d="M719.7,643.1h-19l132.5-494h19L719.7,643.1z M985.8,149.1h-94.2l-132.1,494h94.2l25.2-94.3h46.7L974.5,366
		h-46.7L985.8,149.1z M935,548.8h24.5l48.9-182.9h-24.5L935,548.8z M968.9,548.8h15.1L1033,366h-15.1L968.9,548.8z M930.2,782.6
		h12.1L1137,54.8h-12.1L930.2,782.6z M1149.1,9.6H1137l-8.6,32.2h12.1L1149.1,9.6z M1245.9,9.6h-65.1l-8.6,32.2h65.1L1245.9,9.6z
		 M974,782.6h65.1l194.7-727.8h-65.1L974,782.6z"/>
	<text transform="matrix(1 0 0 1 584.5247 54.8306)" class="st0"><tspan x="0" y="0" class="st1 st4 st5">5ac5e3</tspan><tspan x="0" y="73.4" class="st1 st4 st5">4ab0d5</tspan></text>
	<rect x="610" y="190.6" class="st6" width="60" height="60"/>
	<rect x="610" y="265" class="st7" width="60" height="60"/>
</g>
</svg>
